<?xml version="1.0" encoding="utf-8"?>
<!-- Svg Vector Icons : http://www.onlinewebfonts.com/icon -->
<!DOCTYPE svg PUBLIC "-//W3C//DTD SVG 1.1//EN" "http://www.w3.org/Graphics/SVG/1.1/DTD/svg11.dtd">
<svg version="1.1" xmlns="http://www.w3.org/2000/svg" xmlns:xlink="http://www.w3.org/1999/xlink" x="0px" y="0px" viewBox="0 0 1000 1000" enable-background="new 0 0 1000 1000" xml:space="preserve">
<metadata> Svg Vector Icons : http://www.onlinewebfonts.com/icon </metadata>
<g><g transform="matrix(1 0 0 -1 0 1920)"><path d="M255,1767.1c-11.2,0-20.8,4-28.8,12c-8,8-12,17.6-12,28.8v40.8c0,11.2,4,20.8,12,28.8c8,8,17.6,12,28.8,12h81.7c11.2,0,20.8-4,28.8-12c8-8,12-17.6,12-28.8v-40.8c0-11.2-4-20.8-12-28.8c-8-8-17.6-12-28.8-12H255z M255,1603.8c-11.2,0-20.8,4-28.8,12c-8,8-12,17.6-12,28.8v40.8c0,11.2,4,20.8,12,28.8c8,8,17.6,12,28.8,12h81.7c11.2,0,20.8-4,28.8-12c8-8,12-17.6,12-28.8v-40.8c0-11.2-4-20.8-12-28.8c-8-8-17.6-12-28.8-12H255z M867.5,1603.8c-11.2,0-20.8,4-28.8,12c-8,8-12,17.6-12,28.8v40.8c0,11.2,4,20.8,12,28.8c8,8,17.6,12,28.8,12h81.7c11.2,0,20.8-4,28.8-12c8-8,12-17.6,12-28.8v-40.8c0-11.2-4-20.8-12-28.8c-8-8-17.6-12-28.8-12H867.5z M255,1440.4c-11.2,0-20.8,4-28.8,12c-8,8-12,17.6-12,28.8v40.8c0,11.2,4,20.8,12,28.8c8,8,17.6,12,28.8,12h81.7c11.2,0,20.8-4,28.8-12c8-8,12-17.6,12-28.8v-40.8c0-11.2-4-20.8-12-28.8c-8-8-17.6-12-28.8-12H255z M459.2,1440.4c-11.2,0-20.8,4-28.8,12c-8,8-12,17.6-12,28.8v40.8c0,11.2,4,20.8,12,28.8s17.6,12,28.8,12h81.7c11.2,0,20.8-4,28.8-12s12-17.6,12-28.8v-40.8c0-11.2-4-20.8-12-28.8c-8-8-17.6-12-28.8-12H459.2z M867.5,1440.4c-11.2,0-20.8,4-28.8,12c-8,8-12,17.6-12,28.8v40.8c0,11.2,4,20.8,12,28.8c8,8,17.6,12,28.8,12h81.7c11.2,0,20.8-4,28.8-12s12-17.6,12-28.8v-40.8c0-11.2-4-20.8-12-28.8c-8-8-17.6-12-28.8-12H867.5z M255,1277.1c-11.2,0-20.8,4-28.8,12c-8,8-12,17.6-12,28.8v40.8c0,11.2,4,20.8,12,28.8c8,8,17.6,12,28.8,12h81.7c11.2,0,20.8-4,28.8-12c8-8,12-17.6,12-28.8v-40.8c0-11.2-4-20.8-12-28.8c-8-8-17.6-12-28.8-12H255z M459.2,1277.1c-11.2,0-20.8,4-28.8,12c-8,8-12,17.6-12,28.8v40.8c0,11.2,4,20.8,12,28.8c8,8,17.6,12,28.8,12h81.7c11.2,0,20.8-4,28.8-12c8-8,12-17.6,12-28.8v-40.8c0-11.2-4-20.8-12-28.8c-8-8-17.6-12-28.8-12H459.2z M663.3,1277.1c-11.2,0-20.8,4-28.8,12c-8,8-12,17.6-12,28.8v40.8c0,11.2,4,20.8,12,28.8c8,8,17.6,12,28.8,12H745c11.2,0,20.8-4,28.8-12c8-8,12-17.6,12-28.8v-40.8c0-11.2-4-20.8-12-28.8c-8-8-17.6-12-28.8-12H663.3z M867.5,1277.1c-11.2,0-20.8,4-28.8,12c-8,8-12,17.6-12,28.8v40.8c0,11.2,4,20.8,12,28.8c8,8,17.6,12,28.8,12h81.7c11.2,0,20.8-4,28.8-12c8-8,12-17.6,12-28.8v-40.8c0-11.2-4-20.8-12-28.8c-8-8-17.6-12-28.8-12H867.5z M50.8,1113.8c-11.2,0-20.8,4-28.8,12s-12,17.6-12,28.8v40.8c0,11.2,4,20.8,12,28.8c8,8,17.6,12,28.8,12h81.7c11.2,0,20.8-4,28.8-12c8-8,12-17.6,12-28.8v-40.8c0-11.2-4-20.8-12-28.8c-8-8-17.6-12-28.8-12H50.8z M255,1113.8c-11.2,0-20.8,4-28.8,12c-8,8-12,17.6-12,28.8v40.8c0,11.2,4,20.8,12,28.8c8,8,17.6,12,28.8,12h81.7c11.2,0,20.8-4,28.8-12c8-8,12-17.6,12-28.8v-40.8c0-11.2-4-20.8-12-28.8c-8-8-17.6-12-28.8-12H255z M459.2,1113.8c-11.2,0-20.8,4-28.8,12s-12,17.6-12,28.8v40.8c0,11.2,4,20.8,12,28.8c8,8,17.6,12,28.8,12h81.7c11.2,0,20.8-4,28.8-12c8-8,12-17.6,12-28.8v-40.8c0-11.2-4-20.8-12-28.8s-17.6-12-28.8-12H459.2z M663.3,1113.8c-11.2,0-20.8,4-28.8,12s-12,17.6-12,28.8v40.8c0,11.2,4,20.8,12,28.8c8,8,17.6,12,28.8,12H745c11.2,0,20.8-4,28.8-12c8-8,12-17.6,12-28.8v-40.8c0-11.2-4-20.8-12-28.8c-8-8-17.6-12-28.8-12H663.3z M867.5,1113.8c-11.2,0-20.8,4-28.8,12c-8,8-12,17.6-12,28.8v40.8c0,11.2,4,20.8,12,28.8c8,8,17.6,12,28.8,12h81.7c11.2,0,20.8-4,28.8-12c8-8,12-17.6,12-28.8v-40.8c0-11.2-4-20.8-12-28.8s-17.6-12-28.8-12H867.5z M50.8,950.4c-11.2,0-20.8,4-28.8,12c-8,8-12,17.6-12,28.8v40.8c0,11.2,4,20.8,12,28.8c8,8,17.6,12,28.8,12h81.7c11.2,0,20.8-4,28.8-12c8-8,12-17.6,12-28.8v-40.8c0-11.2-4-20.8-12-28.8c-8-8-17.6-12-28.8-12H50.8z M255,950.4c-11.2,0-20.8,4-28.8,12c-8,8-12,17.6-12,28.8v40.8c0,11.2,4,20.8,12,28.8c8,8,17.6,12,28.8,12h81.7c11.2,0,20.8-4,28.8-12c8-8,12-17.6,12-28.8v-40.8c0-11.2-4-20.8-12-28.8c-8-8-17.6-12-28.8-12H255z M459.2,950.4c-11.2,0-20.8,4-28.8,12c-8,8-12,17.6-12,28.8v40.8c0,11.2,4,20.8,12,28.8c8,8,17.6,12,28.8,12h81.7c11.2,0,20.8-4,28.8-12c8-8,12-17.6,12-28.8v-40.8c0-11.2-4-20.8-12-28.8c-8-8-17.6-12-28.8-12H459.2z M663.3,950.4c-11.2,0-20.8,4-28.8,12c-8,8-12,17.6-12,28.8v40.8c0,11.2,4,20.8,12,28.8c8,8,17.6,12,28.8,12H745c11.2,0,20.8-4,28.8-12c8-8,12-17.6,12-28.8v-40.8c0-11.2-4-20.8-12-28.8c-8-8-17.6-12-28.8-12H663.3z M867.5,950.4c-11.2,0-20.8,4-28.8,12c-8,8-12,17.6-12,28.8v40.8c0,11.2,4,20.8,12,28.8c8,8,17.6,12,28.8,12h81.7c11.2,0,20.8-4,28.8-12c8-8,12-17.6,12-28.8v-40.8c0-11.2-4-20.8-12-28.8c-8-8-17.6-12-28.8-12H867.5z"/></g></g>
</svg>